# xmcd CD database file
#
# Track frame offsets:
#	150
#	12580
#	26692
#	40512
#	53035
#	65860
#	79937
#	91560
#	109237
#	118785
#	133482
#	153137
#	169237
#	191905
#	217940
#	233242
#	247160
#	263840
#	277447
#	293010
#	308012
#	321187
#
# Disc length: 4401 seconds
#
# Revision: 1
# Processed by: cddbd v1.5.2PL0 Copyright (c) Steve Scherf et al.
# Submitted via: CDex 1.51
#
DISCID=48112f16
DTITLE=Etc. - Jazz Vocal - Best Collection
DYEAR=1900
DGENRE=Jazz
TTITLE0=Misty
TTITLE1=Moonlight In Vermont
TTITLE2=Night And Day
TTITLE3=Summertime
TTITLE4=Cry Me A River
TTITLE5=When You Wish Upon A Star
TTITLE6=Fly Me To The Moon
TTITLE7=I Can't Get Started
TTITLE8=Stella By Starlight
TTITLE9=Honeysuckle Rose
TTITLE10=You'd Be So Nice To Come Home To
TTITLE11=All Of You
TTITLE12=What's New
TTITLE13=September Song
TTITLE14=Smoke Gets In Your Eyes
TTITLE15=Les Feuilles Mortes
TTITLE16=Bye Bye Black Bird
TTITLE17=Johnny Guitar
TTITLE18=I'm A Fool To Want You
TTITLE19=Lover Come Back To Me
TTITLE20=St. Lous Blues
TTITLE21=Come On A My House
EXTD=
EXTT0=
EXTT1=
EXTT2=
EXTT3=
EXTT4=
EXTT5=
EXTT6=
EXTT7=
EXTT8=
EXTT9=
EXTT10=
EXTT11=
EXTT12=
EXTT13=
EXTT14=
EXTT15=
EXTT16=
EXTT17=
EXTT18=
EXTT19=
EXTT20=
EXTT21=
PLAYORDER=
